<svg xmlns="http://www.w3.org/2000/svg" viewBox="0 0 512 512" fill="currentColor">
  <path d="M496 192h-74.7c8.7-21.4 14.7-44.6 14.7-70.1 0-6.7-4.2-12.7-10.5-15.1L400 96l37.5-37.5c6.2-6.2 6.2-16.4 0-22.6l-22.6-22.6c-6.2-6.2-16.4-6.2-22.6 0L352 50.7V16c0-8.8-7.2-16-16-16h-32c-8.8 0-16 7.2-16 16v48H224V16c0-8.8-7.2-16-16-16h-32c-8.8 0-16 7.2-16 16v34.7L97.5 13.9c-6.2-6.2-16.4-6.2-22.6 0L52.4 36.5c-6.2 6.2-6.2 16.4 0 22.6L90 96l-25.5 10.8c-6.3 2.4-10.5 8.4-10.5 15.1 0 25.5 6 48.6 14.7 70.1H16c-8.8 0-16 7.2-16 16v32c0 8.8 7.2 16 16 16h75.4c11.6 57.8 54.4 103.5 109.1 121.6-.3 3.1-.5 6.3-.5 9.5V448h-32c-8.8 0-16 7.2-16 16v32c0 8.8 7.2 16 16 16h192c8.8 0 16-7.2 16-16v-32c0-8.8-7.2-16-16-16h-32v-76.9c0-3.2-.2-6.4-.5-9.5 54.7-18.1 97.5-63.8 109.1-121.6H496c8.8 0 16-7.2 16-16v-32c0-8.8-7.2-16-16-16zM144 228.4c-14.3-8.3-26.5-20.2-35.6-34.4h295.2c-9.1 14.2-21.4 26.1-35.6 34.4H144z" />
</svg>
